# xmcd
#
# Track frame offsets:
#	150
#	12826
#	23863
#	36862
#	47850
#	62818
#	80214
#	90847
#	101777
#	113872
#	124275
#	133383
#	146918
#	158223
#	169797
#	182492
#	194561
#	205479
#	217420
#	237441
#	249018
#	260645
#	272107
#	285114
#	298117
#
# Disc length: 4128 seconds
#
# Revision: 0
# Processed by: cddbd v1.5.2PL0 Copyright (c) Steve Scherf et al.
# Submitted via: dBpowerAMP V4.0
#
DISCID=87101e19
DTITLE=Various Artist - 100 Baladas romanticas Vol 4
DYEAR=2003
DGENRE=Ballad
TTITLE0=Fred Bongusto - Una rotonda sul mare
TTITLE1=Roy Orbison - Only the lonely
TTITLE2=Adamo - Je vous offre
TTITLE3=Tom Jones - Again
TTITLE4=Percy Sledge - Warm and tender love
TTITLE5=Lutricia McNeal - The greatest love you'll never
TTITLE6=Timy Juro - Hurt
TTITLE7=Frank Alamo - Eve
TTITLE8=Sam Cookie - Win your love for me
TTITLE9=Domenico Mondugno - Piove
TTITLE10=Galdys Knight - If ever I should fall in love
TTITLE11=Bread - Lost without your love
TTITLE12=Sergio Endrigo - Sophia
TTITLE13=Lou Rawis - Sad song
TTITLE14=James Taylor - The letter
TTITLE15=The Shirelles - Will you love me tomorrow
TTITLE16=Ben E. King - I (Who have nothing)
TTITLE17=Cesar - J'aime les filles
TTITLE18=Century - Lover why
TTITLE19=Hurricane Smith - Don't let it die
TTITLE20=Elvis Presley - Have I told you lately that I love you
TTITLE21=Cher - The way of love
TTITLE22=Milva - Al di la
TTITLE23=Astrud Gilberto - The puppy song
TTITLE24=Teen Boys - Ramona
EXTD=
EXTT0=
EXTT1=
EXTT2=
EXTT3=
EXTT4=
EXTT5=
EXTT6=
EXTT7=
EXTT8=
EXTT9=
EXTT10=
EXTT11=
EXTT12=
EXTT13=
EXTT14=
EXTT15=
EXTT16=
EXTT17=
EXTT18=
EXTT19=
EXTT20=
EXTT21=
EXTT22=
EXTT23=
EXTT24=
PLAYORDER=
